<?xml version="1.0" encoding="UTF-8"?>
<svg width="7px" height="12px" viewBox="0 0 7 12" version="1.1" xmlns="http://www.w3.org/2000/svg" xmlns:xlink="http://www.w3.org/1999/xlink">
    <!-- Generator: Sketch 60 (88103) - https://sketch.com -->
    <title>chevron_right</title>
    <desc>Created with Sketch.</desc>
    <g id="Icons" stroke="none" stroke-width="1" fill="none" fill-rule="evenodd">
        <g id="The-Icon-of---Arrows" transform="translate(-611.000000, -726.000000)" fill="#000000" fill-rule="nonzero">
            <g id="ico-/-24-/-arrows-/-chevron_right" transform="translate(602.000000, 720.000000)">
                <path d="M15.78,11.28 C15.9206925,11.4205174 15.9998249,11.6111546 16,11.81 L16,12.19 C15.997696,12.3884141 15.918884,12.5782794 15.78,12.72 L10.64,17.85 C10.5461167,17.9446563 10.4183188,17.9978992 10.285,17.9978992 C10.1516812,17.9978992 10.0238833,17.9446563 9.93,17.85 L9.22,17.14 C9.12593593,17.0478364 9.07292856,16.9216897 9.07292856,16.79 C9.07292856,16.6583103 9.12593593,16.5321636 9.22,16.44 L13.67,12 L9.22,7.56 C9.12534367,7.4661167 9.07210084,7.33831877 9.07210084,7.205 C9.07210084,7.07168123 9.12534367,6.9438833 9.22,6.85 L9.93,6.15 C10.0238833,6.05534367 10.1516812,6.00210084 10.285,6.00210084 C10.4183188,6.00210084 10.5461167,6.05534367 10.64,6.15 L15.78,11.28 Z" id="Icon-color"></path>
            </g>
        </g>
    </g>
</svg>