<?xml version="1.0" encoding="UTF-8"?>
<svg width="16px" height="20px" viewBox="0 0 16 20" version="1.1" xmlns="http://www.w3.org/2000/svg" xmlns:xlink="http://www.w3.org/1999/xlink">
    <!-- Generator: Sketch 60 (88103) - https://sketch.com -->
    <title>mic</title>
    <desc>Created with Sketch.</desc>
    <g id="Icons" stroke="none" stroke-width="1" fill="none" fill-rule="evenodd">
        <g id="The-Icon-of---Audiovisual" transform="translate(-978.000000, -350.000000)" fill="#FFFFFF" fill-rule="nonzero">
            <g id="ico-/-24-/-audiovisual-/-mic" transform="translate(974.000000, 348.000000)">
                <path d="M8,10 L8,6 C8,3.790861 9.790861,2 12,2 C14.209139,2 16,3.790861 16,6 L16,10 C16,12.209139 14.209139,14 12,14 C9.790861,14 8,12.209139 8,10 Z M19.08,13.45 C19.04772,13.3379725 18.9670142,13.2462614 18.86,13.2 L17.81,12.71 C17.6079847,12.6139723 17.3661536,12.693117 17.26,12.89 C16.2219194,14.8061287 14.2265037,16.0087425 12.0473666,16.0315933 C9.86822944,16.0544441 7.84803368,14.8939388 6.77,13 C6.64622068,12.7712257 6.36525652,12.6790343 6.13,12.79 L5.22,13.21 C5.09410336,13.2677965 4.99931576,13.3771668 4.96,13.51 C4.90553089,13.6377704 4.90553089,13.7822296 4.96,13.91 C6.19517402,16.1470871 8.42475184,17.6594841 10.96,17.98 L10.96,20 L9.5,20 C9.22385763,20 9,20.2238576 9,20.5 L9,21.5 C9,21.7761424 9.22385763,22 9.5,22 L14.5,22 C14.7761424,22 15,21.7761424 15,21.5 L15,20.5 C15,20.2238576 14.7761424,20 14.5,20 L13,20 L13,17.93 C15.5352482,17.6094841 17.764826,16.0970871 19,13.86 C19,13.86 19,13.86 19,13.78 C19.0770634,13.6886939 19.1066959,13.5664598 19.08,13.45 L19.08,13.45 Z" id="Icon-color"></path>
            </g>
        </g>
    </g>
</svg>