<?xml version="1.0" encoding="UTF-8"?>
<svg width="68px" height="90px" viewBox="0 0 68 90" version="1.1" xmlns="http://www.w3.org/2000/svg" xmlns:xlink="http://www.w3.org/1999/xlink">
    <!-- Generator: Sketch 60 (88103) - https://sketch.com -->
    <title>noun_Watch_1591325</title>
    <desc>Created with Sketch.</desc>
    <g id="Icons" stroke="none" stroke-width="1" fill="none" fill-rule="evenodd">
        <g id="noun_Watch_1591325" transform="translate(0.000000, -1.000000)" fill="#FFFFFF" fill-rule="nonzero">
            <g id="Group" transform="translate(0.000000, 0.637820)">
                <path d="M21.9375,0.56531 L0.0625,13.72156 L5.625,28.19031 L32.09375,12.25281 L21.9375,0.56531 Z M38.96875,12.87781 C37.25984,12.95821 35.54334,13.4614 33.96875,14.40906 L33.90625,14.34656 C33.8856874,14.3574937 33.8648472,14.3678971 33.84375,14.37776 L6.625,30.75276 L6.6562,30.84646 C1.61752,33.87898 -0.03257,40.37028 2.99995,45.409 L19.43745,72.7216 C22.43759,77.7064 28.82861,79.3116 33.8437,76.4091 C33.8978,76.3781 33.94614,76.3481 33.99995,76.3151 L61.18745,59.9713 C61.2363698,59.9258259 61.2885965,59.8840445 61.3437,59.8463 C61.3796,59.8243 61.4019,59.8063 61.4374,59.7843 C66.39199,56.7247 67.97958,50.3183 64.96865,45.3155 L48.5624,18.00281 C46.47754,14.53871 42.72826,12.70086 38.96865,12.87781 L38.96875,12.87781 Z M36.03125,29.87781 C38.80959,29.66223 41.58037,30.93729 43.3125,33.81531 C45.19558,36.94413 47.45075,43.8604 39.59375,54.7528 C26.29035,56.5958 21.22683,51.3816 19.34375,48.2528 C16.82429,44.0666 18.33982,39.52455 22.0625,37.28406 C24.77485,35.65164 27.39314,36.39863 29.28125,37.59656 C29.10673,35.36731 29.6314,32.72898 32.34375,31.09656 C33.50709,30.39641 34.76837,29.9758 36.03125,29.87781 Z M62.3125,62.4091 L35.78125,78.3778 L46.0625,90.1591 L67.9375,76.9716 L62.3125,62.4091 L62.3125,62.4091 Z" id="Shape"></path>
            </g>
        </g>
    </g>
</svg>